<svg width="110" height="110" viewBox="0 0 110 110" fill="none" xmlns="http://www.w3.org/2000/svg">
<path d="M54.8966 107.793C84.1106 107.793 107.793 84.1106 107.793 54.8966C107.793 25.6826 84.1106 2 54.8966 2C25.6826 2 2 25.6826 2 54.8966C2 84.1106 25.6826 107.793 54.8966 107.793Z" stroke="#378C55" stroke-width="4" stroke-linejoin="round"/>
<path d="M54.8963 96.4829C77.2959 96.4829 95.4543 78.3244 95.4543 55.9249C95.4543 33.5253 77.2959 15.3668 54.8963 15.3668C32.4967 15.3668 14.3383 33.5253 14.3383 55.9249C14.3383 78.3244 32.4967 96.4829 54.8963 96.4829Z" stroke="#378C55" stroke-width="4" stroke-linejoin="round"/>
<path d="M34.8983 50.5751L42.9832 59.6112L40.5915 72.5263C40.4512 73.284 40.7586 74.0548 41.3818 74.508C42.005 74.9612 42.8331 75.0161 43.5106 74.6491L54.8967 68.4816L66.2827 74.6491C66.9488 75.0099 67.7615 74.9634 68.3821 74.5289C69.0028 74.0945 69.3246 73.3468 69.2136 72.5974L67.2998 59.6788L75.8846 50.617C76.4045 50.0683 76.5706 49.2733 76.3139 48.5624C76.0572 47.8514 75.4215 47.3459 74.671 47.2558L62.8671 45.8393L56.6711 33.9239C56.3161 33.2411 55.6008 32.8226 54.8316 32.8476C54.0625 32.8726 53.3759 33.3367 53.066 34.0411L47.8703 45.8494L36.1505 47.2558C35.4102 47.3446 34.7807 47.838 34.5175 48.5356C34.2543 49.2333 34.4011 50.0194 34.8983 50.5751Z" stroke="#378C55" stroke-width="4" stroke-linejoin="round"/>
</svg>
