<svg width="95" height="95" viewBox="0 0 95 95" fill="none" xmlns="http://www.w3.org/2000/svg">
<path d="M47.5 0C21.289 0 0 21.289 0 47.5C0 73.711 21.289 95 47.5 95C73.711 95 95 73.711 95 47.5C95 21.289 73.711 0 47.5 0ZM47.5 3.8C71.6573 3.8 91.2 23.3427 91.2 47.5C91.2 71.6573 71.6573 91.2 47.5 91.2C23.3427 91.2 3.8 71.6573 3.8 47.5C3.8 23.3427 23.3427 3.8 47.5 3.8ZM47.5 9.5C26.5357 9.5 9.5 26.5357 9.5 47.5C9.5 56.0093 12.3039 63.8861 17.0369 70.2221C17.1863 70.4221 17.3736 70.5908 17.5881 70.7184C17.8027 70.8461 18.0403 70.9302 18.2874 70.9661C18.5344 71.0019 18.7861 70.9887 19.0281 70.9273C19.2701 70.8659 19.4976 70.7574 19.6977 70.608C19.8977 70.4586 20.0664 70.2713 20.194 70.0568C20.3217 69.8422 20.4058 69.6046 20.4417 69.3576C20.4775 69.1105 20.4643 68.8588 20.4029 68.6168C20.3415 68.3748 20.233 68.1473 20.0836 67.9473C15.8222 62.2426 13.3 55.1758 13.3 47.5C13.3 28.5894 28.5894 13.3 47.5 13.3C66.4106 13.3 81.7 28.5894 81.7 47.5C81.7 66.4106 66.4106 81.7 47.5 81.7C41.984 81.7 36.7863 80.3994 32.1775 78.0856C31.9546 77.9734 31.7117 77.9063 31.4628 77.888C31.2139 77.8697 30.9638 77.9006 30.7269 77.979C30.4899 78.0574 30.2707 78.1817 30.0818 78.3448C29.8929 78.5079 29.7379 78.7066 29.6258 78.9296C29.5137 79.1526 29.4466 79.3954 29.4284 79.6444C29.4102 79.8933 29.4412 80.1433 29.5196 80.3803C29.5981 80.6172 29.7224 80.8364 29.8856 81.0253C30.0487 81.2141 30.2475 81.369 30.4705 81.4811C35.5933 84.0529 41.3849 85.5 47.5 85.5C68.4643 85.5 85.5 68.4643 85.5 47.5C85.5 26.5357 68.4643 9.5 47.5 9.5ZM47.4704 24.7186C46.9671 24.7264 46.4875 24.9336 46.1368 25.2947C45.7862 25.6558 45.5931 26.1413 45.6 26.6445V30.118C45.3549 30.1615 45.1095 30.1799 44.8652 30.2405H44.8614C40.4003 31.348 37.165 35.1773 37.1649 39.6329C37.165 44.073 40.3825 47.8848 44.8206 49.0067C47.4619 49.8071 49.0408 49.4751 50.8806 50.2239C53.4157 51.6178 54.5596 54.2365 53.8308 56.7551C53.0948 59.298 50.5389 61.1749 47.5073 61.1749C44.4758 61.1749 41.9161 59.298 41.1802 56.7551C41.1108 56.5153 40.9948 56.2915 40.8389 56.0965C40.683 55.9015 40.4903 55.7391 40.2716 55.6186C40.0529 55.4981 39.8127 55.4219 39.5645 55.3943C39.3164 55.3667 39.0652 55.3882 38.8254 55.4576C38.5856 55.5271 38.3618 55.6431 38.1669 55.7991C37.9719 55.955 37.8096 56.1479 37.6892 56.3666C37.5687 56.5853 37.4926 56.8256 37.465 57.0737C37.4375 57.3218 37.4591 57.573 37.5286 57.8128C38.595 61.4969 41.7985 64.1221 45.5999 64.793V68.3555C45.5963 68.6073 45.6429 68.8573 45.7367 69.0909C45.8306 69.3246 45.97 69.5372 46.1468 69.7165C46.3236 69.8958 46.5342 70.0382 46.7665 70.1354C46.9988 70.2326 47.2481 70.2826 47.4999 70.2826C47.7517 70.2826 48.001 70.2326 48.2333 70.1354C48.4656 70.0382 48.6762 69.8958 48.853 69.7165C49.0298 69.5372 49.1692 69.3246 49.2631 69.0909C49.357 68.8573 49.4035 68.6073 49.3999 68.3555V64.7968C53.2072 64.1302 56.4146 61.5018 57.4823 57.8128C58.7235 53.5238 56.6494 48.9706 52.621 46.8173C52.5713 46.7915 52.5205 46.768 52.4688 46.7468C49.6165 45.5341 47.7008 45.9295 45.8819 45.3663C45.8475 45.3554 45.8129 45.3455 45.778 45.3366C42.8603 44.6123 40.9649 42.2501 40.9649 39.6329C40.9649 37.0149 42.8602 34.6536 45.778 33.9292C48.6956 33.2057 51.7567 34.4161 53.1998 36.731C53.3319 36.9428 53.5043 37.1265 53.7074 37.2717C53.9104 37.4168 54.1401 37.5205 54.3832 37.5769C54.6264 37.6333 54.8783 37.6412 55.1245 37.6003C55.3707 37.5593 55.6064 37.4702 55.8182 37.3381C56.03 37.206 56.2136 37.0335 56.3587 36.8304C56.5038 36.6274 56.6075 36.3977 56.6638 36.1545C56.7201 35.9114 56.728 35.6595 56.687 35.4133C56.6459 35.1671 56.5568 34.9314 56.4247 34.7197C54.8564 32.2039 52.263 30.5759 49.3998 30.0773V26.6447C49.4033 26.3905 49.3558 26.1381 49.26 25.9027C49.1642 25.6672 49.0221 25.4533 48.8422 25.2737C48.6622 25.0941 48.4481 24.9525 48.2124 24.8571C47.9768 24.7618 47.7246 24.7146 47.4704 24.7186ZM75.77 53.9533C75.5675 53.9658 75.3743 54.0428 75.2187 54.173C75.0631 54.3032 74.9533 54.4798 74.9053 54.6769C73.5179 59.9742 70.6198 64.7694 66.5557 68.4631C66.4592 68.5457 66.3802 68.6469 66.3235 68.7606C66.2668 68.8743 66.2334 68.9983 66.2254 69.1251C66.2175 69.2519 66.235 69.3791 66.277 69.499C66.3191 69.6189 66.3847 69.7292 66.4701 69.8233C66.5555 69.9174 66.659 69.9934 66.7743 70.0468C66.8896 70.1003 67.0144 70.13 67.1414 70.1343C67.2684 70.1386 67.395 70.1174 67.5137 70.0719C67.6323 70.0264 67.7407 69.9576 67.8323 69.8695C72.1694 65.9278 75.2654 60.8124 76.7459 55.1594C76.7848 55.021 76.7917 54.8757 76.7662 54.7343C76.7407 54.5928 76.6835 54.4591 76.5988 54.343C76.5142 54.2269 76.4043 54.1315 76.2774 54.064C76.1506 53.9965 76.01 53.9586 75.8664 53.9533C75.8343 53.9517 75.8021 53.9517 75.77 53.9533ZM63.3791 71.1387C63.1979 71.1423 63.0215 71.1977 62.8707 71.2983C62.4768 71.5526 62.0735 71.797 61.6647 72.033C61.4462 72.159 61.2867 72.3666 61.2213 72.6102C61.1559 72.8538 61.1899 73.1134 61.3159 73.3319C61.4419 73.5503 61.6495 73.7098 61.893 73.7753C62.1366 73.8407 62.3962 73.8067 62.6147 73.6807C63.0508 73.4289 63.4784 73.1653 63.8987 72.894C64.0746 72.7838 64.2096 72.6191 64.2831 72.425C64.3565 72.2309 64.3644 72.0181 64.3055 71.819C64.2466 71.62 64.1242 71.4458 63.9569 71.3229C63.7896 71.2001 63.5867 71.1353 63.3791 71.1387ZM23.7946 72.7715C23.4006 72.7588 23.0125 72.869 22.6839 73.0867C22.3553 73.3045 22.1026 73.619 21.9607 73.9867C21.8188 74.3545 21.7948 74.7572 21.892 75.1392C21.9892 75.5212 22.2028 75.8635 22.5032 76.1187C22.9913 76.5455 23.489 76.9603 23.9987 77.3619C24.194 77.5223 24.4193 77.6421 24.6614 77.7143C24.9036 77.7865 25.1577 77.8097 25.4089 77.7825C25.6602 77.7553 25.9034 77.6783 26.1245 77.5559C26.3456 77.4336 26.5401 77.2684 26.6966 77.0699C26.853 76.8715 26.9684 76.6439 27.0358 76.4003C27.1032 76.1568 27.1214 75.9023 27.0892 75.6516C27.0571 75.401 26.9753 75.1593 26.8486 74.9406C26.7219 74.722 26.5529 74.5308 26.3514 74.3783C25.8924 74.0166 25.4439 73.6419 25.0043 73.2576C24.671 72.958 24.2425 72.7858 23.7946 72.7715Z" fill="#378C55"/>
</svg>
